<?xml version="1.0" encoding="utf-8"?>
<svg width="512px" height="512px" viewBox="0 0 512 512" version="1.1" xmlns:xlink="http://www.w3.org/1999/xlink" xmlns="http://www.w3.org/2000/svg">
  <defs>
    <path d="M512 0L512 0L512 512L0 512L0 0L512 0Z" id="path_1" />
    <clipPath id="clip_1">
      <use xlink:href="#path_1" clip-rule="evenodd" fill-rule="evenodd" />
    </clipPath>
  </defs>
  <g id="Shonky">
    <path d="M512 0L512 0L512 512L0 512L0 0L512 0Z" id="Shonky" fill="none" stroke="none" />
    <g id="Keyboard" transform="translate(231 276)" clip-path="url(#clip_1)">
      <path d="M128.501 103.846C112.09 109.625 25.3326 99.4456 6.50012 85.5014C-2.15827 80.8856 0.928383 60.4344 1.50005 48.5008C21.6938 53.5514 104.949 58.8321 110.002 58.0009C115.054 57.1698 214.947 25.4048 238.5 13.5003C229.918 12.3438 148.502 4.49996 148.502 4.49996L148.502 0C194.334 8.08517 235.223 6.87885 264.473 9.48703C267.66 34.4048 268.223 47.2645 264.397 54.1395C225.202 69.2625 164.472 91.7161 128.501 103.846Z" id="Keyboard-case-bg" fill="#C4DAE6" fill-rule="evenodd" stroke="none" />
      <path d="M119 105.5C102.589 111.279 24.8333 99.9456 6.00078 86.0014C-2.65761 81.3856 0.429044 60.9344 1.00071 49.0007C21.1945 54.0513 107.948 59.3321 113 58.5009C116.093 66.1043 118.826 82.7143 119 105.5Z" id="Keyboard-case-side" fill="#E1EDF4" fill-rule="evenodd" stroke="none" />
      <path d="M5.1014 49.0992L147.558 0.987007L237.5 15C237.5 15 126.548 56.5482 111 59C95.4528 61.4518 5.1014 49.0992 5.1014 49.0992Z" id="Vector" fill="#A2DAEE" fill-rule="evenodd" stroke="none" />
      <path d="M128.002 104.346C111.59 110.125 24.8332 99.9455 6.00076 86.0013C-2.65763 81.3856 0.429026 60.9344 1.00069 49.0007C21.1944 54.0513 104.45 59.3321 109.502 58.5009C114.555 57.6697 214.448 25.9047 238.001 14.0002C229.419 12.8438 148.003 4.99992 148.003 4.99992L148.003 0.499962C193.835 8.58513 234.724 7.37881 263.973 9.98699C267.161 34.9048 267.724 47.7645 263.898 54.6394C224.703 69.7624 163.973 92.2161 128.002 104.346Z" id="Keyboard-case-2" fill="none" fill-rule="evenodd" stroke="#323639" stroke-width="4" stroke-linecap="round" stroke-linejoin="round" />
      <path d="M116.281 72C118.604 81.2519 117.188 81.6396 118.5 88.5L116.281 72Z" id="Vector" fill="none" fill-rule="evenodd" stroke="#323639" stroke-width="4" stroke-linecap="round" stroke-linejoin="round" />
      <path d="M150.078 45.7783C150.078 45.7783 134.395 45.4445 119 43.5C103.605 41.5554 88.5 38 88.5 38" id="Vector-2" fill="none" fill-rule="evenodd" stroke="#323639" stroke-width="3" stroke-linecap="round" stroke-linejoin="round" />
      <path d="M200.633 28.5689C200.633 28.5689 182.6 28.2711 162.35 26C142.1 23.7288 119.633 19.4842 119.633 19.4842" id="Vector-3" fill="none" fill-rule="evenodd" stroke="#323639" stroke-width="3" stroke-linecap="round" stroke-linejoin="round" />
      <path d="M190.013 18.7659C190.013 18.7659 165.728 26.2286 138.5 35.2066C111.271 44.1846 81.099 54.6779 81.099 54.6779" id="Vector-4" fill="none" fill-rule="evenodd" stroke="#323639" stroke-width="3" stroke-linecap="round" stroke-linejoin="round" />
    </g>
    <g id="Shonky" transform="translate(11 2.0000005)" clip-path="url(#clip_1)">
      <g id="Coloring" transform="translate(5.340393 3.2219234)">
        <path d="M129.25 108.532C83.9708 110.69 61.8654 127.168 33.1229 151.008C12.3359 165.974 0 187.207 0 187.207C0 187.207 18.3657 207.879 22.5654 214.009C31.3591 227.993 33.1229 247.359 33.1229 247.359C33.1229 247.359 30.9979 255.821 25.4549 272.389C21.7083 283.732 17.2853 297.318 18.0257 316.773C18.1507 319.075 18.7178 341.481 22.5654 352.009C25.8108 360.888 30.3939 371.504 36.9724 380.973C39.4828 384.586 54.5585 401.653 54.9145 402.385C55.4044 403.391 57.8773 429.431 58.7531 433.444C60.2585 440.342 61.5412 445.131 66.7495 455.009C71.9577 464.886 90.0241 485.924 117.749 494.009C135.911 499.305 152.138 502.419 164.749 502.509C178.508 502.45 190.8 499.669 191.71 499.59C191.71 499.59 183.431 480.719 175.956 468.51C170.558 459.694 147.25 431.01 147.25 431.01C147.25 431.01 186.898 448.385 199.508 451.607C209.794 455.263 219.537 455.168 236.249 442.51C239.305 440.196 251.045 430.074 252.749 428.508L272.59 408.309C272.59 408.309 214.63 401.781 191.71 396.735C174.038 392.845 136.162 381.245 136.075 380.973C135.951 380.584 149.745 358.947 164.749 348.008C168.869 345.005 182.838 335.395 199.299 326.981C203.185 324.995 213.034 319.927 213.034 319.927C213.034 319.927 240.4 325.493 262.125 326.09C262.125 326.09 288.331 326.357 296.609 324.825C307.261 322.854 315.823 318.044 317.339 313.501C318.984 308.434 318.249 307.509 318.249 307.509C329.004 297.598 338.071 287.48 341.749 282.509C347.727 285.039 387.598 301.731 407.249 288.509C413.995 278.661 369.1 244.756 365.749 242.008C371.456 229.953 375.452 222.978 381.749 201.647C392.338 160.517 391.052 152.642 393.75 126.508C393.75 126.508 395.112 96.9982 392.249 80.0277C389.227 62.1058 380.475 42.8115 372.922 31.0083C367.14 21.9733 360.411 15.1448 352.749 9.50832C346.46 4.88118 340.556 2.58813 335.022 1.50837C329.726 0.475115 322.172 0.779669 312.484 2.45497C301.218 4.40366 295.302 6.38288 281.749 11.5084C220.748 31.2655 184.945 63.5052 161.825 80.0277C149.241 89.7684 144.208 94.6362 129.25 108.532Z" id="inside-color" fill="#96CCCB" fill-rule="evenodd" stroke="none" />
        <path d="M44.6829 139.877C79.747 129.636 86.4494 129.101 88.2498 136.509C90.0502 143.917 103.912 152.482 130.25 131.009C156.588 109.537 207.998 78.096 242.751 62.0087C277.504 45.9214 323.469 31.8243 348.752 8.00843C347.177 4.483 345.53 -0.22577 331.752 0.0084044C317.974 0.24258 252.008 17.776 212.751 43.5085C173.493 69.2413 126.75 108.509 126.75 108.509C126.75 108.509 82.1401 110.644 44.6829 139.877Z" id="Top-highlight" fill="#9ED7D3" fill-rule="evenodd" stroke="none" />
        <path d="M391.26 77.3885C276.351 97.3441 254.184 137.779 260.249 182.009C266.315 226.239 243.249 251.009 243.249 251.009C243.249 251.009 281.823 266.498 293.249 276.009C304.676 285.521 315.009 299.89 317.249 305.009C319.49 310.128 356.395 263.839 366.25 240.509C376.104 217.179 400.984 142.064 391.26 77.3885Z" id="Belly-top" fill="#FFFFFF" fill-rule="evenodd" stroke="none" />
        <path d="M160.25 305.008C69.1245 373.699 104.439 414.385 140.75 382.51C135.105 381.716 137.567 378.141 139.188 376.01C154.422 355.984 164.358 342.506 213.626 320.521C193.093 315.715 168.375 307.822 160.25 305.008Z" id="Vector" fill="#FFFFFF" fill-rule="evenodd" stroke="none" />
        <path d="M310.092 293.641C278.86 303.804 249.785 313.41 212.249 306.508C174.714 299.607 161.833 301.416 157.749 305.008C212.298 320.486 248.132 328.973 281.249 326.508C314.367 324.044 326.704 316.422 310.092 293.641Z" id="Fin-shadow" fill="#81AAB3" fill-rule="evenodd" stroke="none" />
        <path d="M206.95 146.004C202.95 117.004 205.701 81.195 216.747 81.195C227.792 81.195 247.363 122.205 247.363 154.238C247.363 186.27 239.253 197.057 231.75 197.009C220.704 197.009 210.95 175.004 206.95 146.004Z" id="Eye" fill="#323365" fill-rule="evenodd" stroke="none" />
        <path d="M392.85 117.685C388.095 127.709 383.275 141.123 378.25 142.008C369.875 143.484 363.754 136.209 354.75 133.008C346.697 135.578 340.418 147.976 326.25 154.008C319.409 150.623 304.249 129.008 304.249 129.008" id="Vector-2" fill="none" fill-rule="evenodd" stroke="#323365" stroke-width="7" stroke-linecap="round" stroke-linejoin="round" />
      </g>
      <path d="M347.71 282.667L347.713 282.669C347.713 282.669 363.192 290.343 382.559 292.18C392.183 293.028 396.314 292.876 401.215 292.245C405.801 291.654 408.539 290.669 409.43 289.289C409.965 288.06 408.639 285.305 405.451 281.023C402.358 276.868 397.699 271.828 391.474 265.901C384.371 259.138 377.623 252.775 370.09 246.813C369.994 246.737 372.637 241.629 372.949 241.876C372.949 241.876 388.283 254.579 395.611 261.555C414 281.141 418.516 286.809 415.59 292.106C413.123 297.542 400.606 299.892 382.559 298.097C359.168 295.858 344.589 287.792 344.589 287.792C344.589 287.792 347.003 282.237 347.71 282.667Z" id="Back-fin" fill="#323365" fill-rule="evenodd" stroke="none" />
      <path d="M39.3661 147.837C70.5902 121.938 101.751 108.741 132.849 108.245C143.914 97.8899 156.663 87.0509 171.096 75.728C207.826 46.9123 243.838 25.8307 279.133 12.4829C292.986 7.24405 305.701 3.62358 317.279 1.62145C327.571 -0.158396 335.666 -0.472956 341.564 0.677771C347.833 1.90076 354.414 5.04754 361.306 10.1181C369.466 16.1215 376.603 23.9014 382.718 33.4577C398.745 58.5025 405.201 91.1618 402.086 131.436C399.122 182.297 386.384 227.835 362.09 268.049C354.483 280.641 345.368 291.949 336.524 301.973C332.356 306.697 328.836 310.329 325.965 312.871C326.152 314.559 324.96 324.086 312.09 328.23C300.915 331.829 294.661 332.005 273.09 332.231C245.766 332.516 222.931 326.858 219.925 326.23C198.809 336.854 182.578 345.23 174.172 351.359C162.229 360.066 152.177 370.355 145.59 382.227C175.971 392.708 200.99 398.115 233.09 403.231C265.191 408.347 278.007 407.165 280.09 410.231C282.174 413.296 273.693 421.339 268.284 426.684C261.793 433.096 253.216 441.213 246.59 446.231C227.561 460.643 220.28 462.209 203.418 458.231C200.71 457.268 180.326 451.958 158.59 438.731C163.338 445.035 176.604 459.817 181.1 467.161C189.107 480.239 195.211 492.057 199.413 502.613C199.466 502.747 199.511 502.883 199.547 503.022C199.584 503.161 199.611 503.302 199.63 503.445C199.758 504.403 199.528 505.266 198.941 506.033C198.354 506.801 197.582 507.249 196.624 507.377L196.623 507.377C190.581 508.181 182.506 509.144 173.58 509.079C155.747 508.951 140.035 506.142 125.262 501.833C104.348 495.734 88.0317 485.798 76.3123 472.025C61.9371 455.13 57.3231 427.574 57.0899 407.231C43.9134 396.9 24.938 367.926 21.0899 342.73C17.9679 322.29 18.3077 297.902 26.2991 274.015C28.8788 266.304 30.4899 261.949 34.0899 254.23C29.9167 227.999 29.799 228.638 25.0899 219.731C20.3808 210.823 0.753727 193.455 0.375416 192.705C0.221302 192.4 0.114276 192.079 0.0543245 191.742C-0.0056274 191.405 -0.0159576 191.067 0.0233338 190.727C0.249363 188.771 3.95118 183.663 11.1288 175.402C19.7179 165.516 29.1304 156.328 39.3661 147.837L39.3661 147.837ZM86.3444 177.264C83.4142 179.001 90.4698 159.493 98.3443 148.416C105.657 138.128 115.279 125.786 126.976 114.239C100.084 116.635 70.8967 130.584 43.5895 153.234C33.6472 161.481 24.5065 170.403 16.1674 180.002C13.2679 183.339 10.8 186.376 8.76353 189.114C8.48853 189.484 8.23401 189.831 8 190.156C24.0168 204.874 38.7681 219.668 40.0899 243.731C42.8933 238.848 49.9689 226.035 53.5899 220.231C58.8915 211.732 60.8892 208.371 65.0899 203.22C65.7007 202.471 67.9569 202.271 69.0898 203.22C70.2229 204.169 69.8947 206.66 69.6219 207.015C69.6119 207.028 61.5287 218.599 56.3832 226.847C46.0819 243.36 38.1848 259.826 32.6918 276.245C22.8038 306.183 25.3522 313.436 25.5899 325.23C25.8739 339.324 29.0385 350.749 31.5899 357.73C35.5839 368.659 38.9813 374.567 46.0899 384.799C52.8069 394.467 60.6028 401.75 62.0531 404.73C63.5034 407.711 62.7297 408.542 63.2164 411.368C65.0681 422.118 62.7111 436.529 73.5899 455.73C75.6503 459.367 82.4446 481.244 126.976 494.23C141.126 498.357 155.406 502.107 172.59 502.23C179.036 502.277 190.763 500.647 195.59 500.23C191.649 491.141 186.318 481.814 179.59 470.825C171.154 457.047 159.543 445.724 146.59 432.731C135.473 423.308 123.411 411.103 125.384 409.406C127.357 407.709 135.026 415.827 146.59 425.731C151.012 428.945 161.638 435.924 165.753 438.2C172.521 441.944 181.701 445.556 193.293 449.038C198.625 450.639 202.7 451.941 205.517 452.942C214.243 456.044 227.117 452.622 244.138 439.73C250.519 434.898 271.586 416.447 273.59 414.215C211.88 407.367 174.176 397.41 141.202 386.731C140.361 386.284 139.797 385.706 139.509 384.799C139.22 383.891 139.291 383.013 139.72 382.163C146.881 367.977 158.715 355.826 172.59 345.711C180.228 340.142 195.154 332.865 212.59 323.879C194.21 319.682 147.449 305.333 155.09 305.087C162.731 304.841 194.129 314.639 218.09 320.23C242.051 325.821 259.468 326.28 274.521 326.694C291.882 327.171 316.116 324.749 318.894 316.422C321.47 308.487 309.367 290.305 281.363 273.73C266.434 265.865 226.774 252.038 228.09 247.23C229.406 242.423 267.271 257.159 282.59 265.23C306.545 277.851 318.661 291.733 323.795 305.087C325.895 303.015 328.306 300.436 331.029 297.35C339.595 287.642 347.573 276.671 354.963 264.438C378.659 225.212 388.949 186.037 394.09 136.23C397.089 97.4266 391.76 60.9676 376.576 37.2395C370.928 28.4131 364.373 21.2551 356.911 15.7653C350.863 11.3155 345.219 8.57939 339.979 7.55696C334.923 6.57068 327.672 6.8943 318.226 8.5278C307.087 10.4544 294.799 13.9578 281.363 19.0391C246.736 32.1343 211.758 50.8556 175.59 79.2304C161.356 90.3978 152.926 96.2404 134.344 113.739C115.763 131.238 109.111 139.611 100.844 151.239C96.279 157.661 89.2745 175.528 86.3444 177.264Z" id="Main-body" fill="#323365" fill-rule="evenodd" stroke="none" />
    </g>
  </g>
</svg>